<?xml version="1.0" encoding="iso-8859-1"?>
<!-- Generator: Adobe Illustrator 19.0.0, SVG Export Plug-In . SVG Version: 6.00 Build 0)  -->
<svg version="1.1" id="Layer_1" xmlns="http://www.w3.org/2000/svg" xmlns:xlink="http://www.w3.org/1999/xlink" x="0px" y="0px"
	 viewBox="0 0 511.928 511.928" style="enable-background:new 0 0 511.928 511.928;" xml:space="preserve">
<g>
	<g>
		<g>
			<path d="M234.641,109.965c-0.085-1.771-0.789-6.101-5.504-8.448c-2.923-1.472-6.507-1.365-9.301,0.213l-46.635,25.365
				l25.899,11.776l30.699-19.883C234.428,116.109,234.705,111.736,234.641,109.965z"/>
			<polygon points="131.644,325.837 163.068,341.56 147.345,294.413 			"/>
			<path d="M307.751,117.752c-11.904-5.952-26.219-5.205-37.269,1.707l-48,30.016l43.392,19.712l43.072-26.901
				c4.373-2.731,6.827-7.445,6.613-12.608C315.26,124.515,312.38,120.056,307.751,117.752z"/>
			<path d="M455.036,102.84c-0.448-0.363-0.939-0.683-1.451-0.981L282.279,6.285c-0.683-0.405-1.429-0.704-2.219-0.896
				c-15.339-7.168-32.64-7.189-48.021-0.043c-0.811,0.235-1.579,0.533-2.304,0.96L58.428,101.88
				c-0.512,0.277-1.003,0.597-1.451,0.96c-15.488,8.875-25.003,24.491-25.003,41.109v224c0,16.619,9.515,32.213,24.96,41.109
				c0.448,0.363,0.939,0.683,1.451,0.981l171.307,95.573c0.683,0.405,1.429,0.704,2.219,0.896c7.68,3.584,15.765,5.419,24.064,5.419
				c8.256,0,16.299-1.792,23.957-5.355c0.811-0.235,1.579-0.533,2.304-0.96l171.307-95.573c0.512-0.277,1.003-0.597,1.429-0.96
				c15.467-8.896,24.981-24.512,24.981-41.131v-224C479.975,127.331,470.481,111.736,455.036,102.84z M195.367,404.728
				c-1.152,0.384-2.261,0.555-3.392,0.555c-4.459,0-8.619-2.816-10.133-7.296l-9.28-27.819l-50.496-25.259l-5.888,11.797
				c-2.624,5.291-9.024,7.381-14.315,4.779c-5.269-2.645-7.403-9.045-4.779-14.315l42.667-85.333
				c1.92-3.861,6.123-6.165,10.283-5.867c4.309,0.299,8,3.157,9.365,7.253l42.667,128
				C203.985,396.835,200.935,402.872,195.367,404.728z M222.865,250.061c-1.877,3.733-5.632,5.888-9.536,5.888
				c-1.6,0-3.221-0.363-4.779-1.131l-128-64c-5.291-2.645-7.403-9.045-4.8-14.315c2.667-5.269,9.045-7.381,14.315-4.779l128,64
				C223.356,238.371,225.468,244.792,222.865,250.061z M266.641,458.616c0,5.888-4.779,10.667-10.667,10.667
				c-5.888,0-10.667-4.779-10.667-10.667V309.283c0-5.888,4.779-10.667,10.667-10.667c5.888,0,10.667,4.779,10.667,10.667V458.616z
				 M272.316,190.328c-1.707,1.088-3.669,1.621-5.653,1.621c-1.493,0-3.008-0.32-4.416-0.96l-117.333-53.333
				c-3.712-1.664-6.101-5.291-6.272-9.323c-0.149-4.032,2.027-7.829,5.568-9.749l65.344-35.563
				c8.704-4.864,20.032-5.141,29.12-0.597c8.704,4.352,14.677,12.139,16.597,21.376l3.925-2.432
				c17.216-10.773,39.808-11.819,57.984-2.752c11.755,5.867,19.051,17.088,19.648,30.059c0.619,12.971-5.589,24.832-16.597,31.701
				L272.316,190.328z M362.108,360.973c6.315,3.925,14.059,4.267,20.757,0.939c7.275-3.627,11.797-10.944,11.797-19.093
				c0-5.888,4.779-10.667,10.667-10.667s10.667,4.779,10.667,10.667c0,16.277-9.045,30.891-23.573,38.165
				c-6.059,3.029-12.608,4.544-19.115,4.544c-7.765,0-15.531-2.155-22.421-6.421c-12.672-7.829-20.224-21.397-20.224-36.288v-28.523
				c0-20.331,11.285-38.613,29.483-47.701c12.075-6.016,26.133-5.376,37.547,1.707c11.477,7.083,18.304,19.349,18.304,32.832
				c0,5.888-4.779,10.667-10.667,10.667s-10.667-4.779-10.667-10.667c0-6.123-2.987-11.477-8.192-14.677
				c-5.227-3.2-11.307-3.499-16.789-0.768c-10.923,5.461-17.685,16.427-17.685,28.608v28.523
				C351.975,350.392,355.665,357.005,362.108,360.973z M431.42,190.819l-128,64c-1.557,0.768-3.179,1.131-4.779,1.131
				c-3.904,0-7.659-2.155-9.536-5.888c-2.624-5.269-0.491-11.669,4.779-14.315l128-64c5.291-2.624,11.669-0.512,14.315,4.779
				C438.801,181.773,436.689,188.195,431.42,190.819z"/>
		</g>
	</g>
</g>
<g>
</g>
<g>
</g>
<g>
</g>
<g>
</g>
<g>
</g>
<g>
</g>
<g>
</g>
<g>
</g>
<g>
</g>
<g>
</g>
<g>
</g>
<g>
</g>
<g>
</g>
<g>
</g>
<g>
</g>
</svg>
